<?xml version="1.0" encoding="utf-8"?>
<!-- Generator: Adobe Illustrator 25.2.3, SVG Export Plug-In . SVG Version: 6.00 Build 0)  -->
<svg version="1.1" xmlns="http://www.w3.org/2000/svg" xmlnsxlink="http://www.w3.org/1999/xlink" x="0px" y="0px"
	 viewbox="0 0 100 125" style="enable-background:new 0 0 100 125;" xmlspace="preserve">
<style type="text/css">
	.st0{fill:#D10000;}
	.st1{fill:#EAEAEA;}
	.st2{fill:none;stroke:#000000;stroke-width:1.5;stroke-linejoin:round;}
	.st3{fill:none;stroke:#000000;stroke-width:1.5;stroke-linecap:round;}
	.st4{fill:#FFFFFF;}
	.st5{display:none;fill:none;stroke:#000000;stroke-width:1.5;stroke-linejoin:round;}
</style>
<g id="Layer_2">
	<path d="M8,46.7c6.8,8.6,18,14.7,31.1,16.9c1.1-5.1,5.7-8.8,10.9-8.8c5.2,0,9.8,3.6,10.9,8.7C74,61.3,85.2,55.2,92,46.6l0,0
		c0.1,1.1,3.3,1.3,0.1,4.8l0,0C85.3,60,74,66.2,60.9,68.5c-1.1,5.1-5.7,8.7-10.9,8.7c-5.2,0-9.8-3.6-10.9-8.8
		C25.9,66.2,14.7,60,7.8,51.4l0,0C4.9,48.2,6,46.6,8,46.7z"/>
</g>
<g id="Layer_1" xmlnscc="http://creativecommons.org/ns#" xmlnsdc="http://purl.org/dc/elements/1.1/" xmlnsinkscape="http://www.inkscape.org/namespaces/inkscape" xmlnsrdf="http://www.w3.org/1999/02/22-rdf-syntax-ns#" xmlnssodipodi="http://sodipodi.sourceforge.net/DTD/sodipodi-0.dtd" xmlnssvg="http://www.w3.org/2000/svg">
	<g transform="translate(0,-952.3622)">
		<g>
			<g>
				<g>
					<path class="st0" d="M50,957.9c-22.2,0-41,16.4-44,38.5c6.5,10,18.7,17.2,33.1,19.6c1.1-5.1,5.7-8.8,10.9-8.8
						c5.2,0,9.8,3.6,10.9,8.7c14.4-2.5,26.6-9.7,33.1-19.7C91,974.3,72.2,957.9,50,957.9z"/>
					<path class="st1" d="M94.4,1000.5c-6.4,10.3-18.8,17.8-33.5,20.3c-1.1,5.1-5.7,8.7-10.9,8.7c-5.2,0-9.8-3.6-10.9-8.8
						c-14.7-2.5-27.1-10-33.5-20.3c0,0.6-0.1,1.2-0.1,1.8c0,24.6,19.9,44.5,44.5,44.5s44.5-19.9,44.5-44.5
						C94.5,1001.8,94.5,1001.1,94.4,1000.5L94.4,1000.5z"/>
					<path class="st2" d="M92,999c1.9,0.4,1.5,1.8,0.1,3.3l0,0c0,0.5,0,1,0,1.5"/>
					<path class="st2" d="M7.8,1003.8c0-0.5,0-0.9,0-1.4c0-1.1,0-2.2,0.1-3.3"/>
					<circle cx="50" cy="1018.4" r="9.1"/>
					<path class="st3" d="M5.6,1000.5c0.2-1.3,1.1-1.4,1.9-1.5"/>
					<path class="st3" d="M94.4,1000.4c-0.2-1.3-1.1-1.4-1.9-1.5"/>
					<circle class="st4" cx="50" cy="1018.4" r="5.4"/>
				</g>
			</g>
		</g>
	</g>
	<g transform="translate(0,-952.3622)">
		<g>
			<g>
				<g>
					<path class="st2" d="M50,957.9c-22.2,0-41,16.4-44,38.5c6.5,10,18.7,17.2,33.1,19.6c1.1-5.1,5.7-8.8,10.9-8.8
						c5.2,0,9.8,3.6,10.9,8.7c14.4-2.5,26.6-9.7,33.1-19.7C91,974.3,72.2,957.9,50,957.9z"/>
					<path class="st2" d="M94.4,1000.5c-6.4,10.3-18.8,17.8-33.5,20.3c-1.1,5.1-5.7,8.7-10.9,8.7c-5.2,0-9.8-3.6-10.9-8.8
						c-14.7-2.5-27.1-10-33.5-20.3c0,0.6-0.1,1.2-0.1,1.8c0,24.6,19.9,44.5,44.5,44.5s44.5-19.9,44.5-44.5
						C94.5,1001.8,94.5,1001.1,94.4,1000.5L94.4,1000.5z"/>
					<path class="st2" d="M92,999c0.1,1.1,0.1,2.2,0.1,3.3l0,0c0,0.5,0,1,0,1.5"/>
					<path class="st2" d="M7.8,1003.8c0-0.5,0-0.9,0-1.4c0-1.1,0-2.2,0.1-3.3"/>
					<circle class="st5" cx="50" cy="1018.4" r="9.1"/>
					<path class="st3" d="M5.6,1000.5c0.2-1.3,1.1-1.4,1.9-1.5"/>
					<path class="st3" d="M94.4,1000.4c-0.2-1.3-1.1-1.4-1.9-1.5"/>
					<circle class="st2" cx="50" cy="1018.4" r="5.4"/>
				</g>
			</g>
		</g>
	</g>
</g>
</svg>
